<?xml version="1.0" encoding="UTF-8"?>
<svg id="Layer_1" data-name="Layer 1" xmlns="http://www.w3.org/2000/svg" viewBox="0 0 375.61 620.12">
  <defs>
    <style>
      .cls-1 {
        fill: #2e364a;
      }
    </style>
  </defs>
  <polygon class="cls-1" points="66.29 491.98 77.2 491.98 77.2 441.93 78.63 441.93 78.63 491.98 102.38 491.98 102.38 489.54 80.97 489.54 80.97 441.93 98.2 441.93 98.2 439.48 80.97 439.48 80.97 426.43 103 426.43 103 423.98 78.63 423.98 78.63 439.48 77.2 439.48 77.2 423.98 66.29 423.98 66.29 439.48 61.5 439.48 61.5 441.93 66.29 441.93 66.29 491.98"/>
  <path class="cls-1" d="M131.38,483.52v-51.08c-7.54,6.93-11.21,15.9-11.21,25.59s3.67,18.66,11.21,25.49Z"/>
  <path class="cls-1" d="M178.07,484.74l-1.53-2.04c-6.32,4.89-12.74,7.85-20.7,7.85-8.56,0-15.7-2.55-20.7-7.24v-50.57c5-4.69,12.23-7.34,20.7-7.34,7.75,0,14.17,2.85,20.7,7.85l1.53-2.04c-6.52-5.1-13.56-8.26-22.22-8.26-9.89,0-16.31,2.85-23.04,8.36v53.32c6.73,5.61,13.25,8.36,23.04,8.36,8.77,0,15.7-3.06,22.22-8.26Z"/>
  <polygon class="cls-1" points="244.09 423.98 241.43 423.98 227.67 466.39 213.09 423.98 210.55 423.98 227.67 474.04 244.09 423.98"/>
  <polygon class="cls-1" points="226.86 476.49 209.02 423.98 197.39 423.98 221.15 493.72 226.86 476.49"/>
  <path class="cls-1" d="M116.05,539.14c0-4.59-1.22-7.65-2.34-10.2l-33.34,52.4h13.05l18.66-29.36c2.14-3.47,3.98-6.93,3.98-12.85Z"/>
  <path class="cls-1" d="M115.34,553.92c2.96-4.69,4.49-9.18,4.49-14.68,0-14.38-11.83-27.02-27.22-27.02s-26.91,12.34-26.91,27.02c0,10.19,4.59,17.43,13.35,23.14l1.22-1.94c-8.05-5.4-12.23-12.13-12.23-21.1,0-12.95,10.4-24.67,24.57-24.67s24.88,11.01,24.88,24.67c0,5.1-1.43,9.07-4.08,13.25l-18.35,28.75h24.88v-2.45h-20.49l15.9-24.98Z"/>
  <path class="cls-1" d="M185.36,521.91v50.87c7.34-6.73,11.21-14.37,11.21-25.79,0-9.58-3.67-18.04-11.21-25.08Z"/>
  <path class="cls-1" d="M126.03,547.3c0,19.78,16.21,35.07,34.87,35.07,9.48,0,16.31-3.06,23.04-8.16v-53.73c-6.93-5-13.97-8.16-22.84-8.16-19.68,0-35.07,15.9-35.07,34.97ZM181.59,572.88c-5.91,4.69-12.74,7.03-20.59,7.03-16.92,0-32.62-13.86-32.62-32.73,0-17.84,14.78-32.42,32.62-32.42,7.95,0,14.48,2.34,20.59,7.14v50.97Z"/>
  <path class="cls-1" d="M253.26,553.92c2.96-4.69,4.49-9.18,4.49-14.68,0-14.38-11.83-27.02-27.22-27.02s-26.91,12.34-26.91,27.02c0,10.19,4.59,17.43,13.35,23.14l1.22-1.94c-8.05-5.4-12.23-12.13-12.23-21.1,0-12.95,10.4-24.67,24.57-24.67s24.88,11.01,24.88,24.67c0,5.1-1.43,9.07-4.08,13.25l-18.35,28.75h24.88v-2.45h-20.49l15.9-24.98Z"/>
  <path class="cls-1" d="M253.97,539.14c0-4.59-1.22-7.65-2.34-10.2l-33.34,52.4h13.05l18.66-29.36c2.14-3.47,3.98-6.93,3.98-12.85Z"/>
  <path class="cls-1" d="M277.51,531.8l14.88-18.45h-2.96l-18.96,23.14c-4.49,5.4-7.75,10.81-7.75,19.17,0,15.09,12.54,26.71,26.71,26.71,5.3,0,10.3-1.43,14.68-4.18v-45.06c-4.59-2.85-9.79-4.28-14.27-4.28s-8.56.92-12.34,2.96ZM301.77,576.76c-3.57,1.73-7.34,3.16-12.03,3.16-14.17,0-24.67-11.52-24.67-24.37s10.5-24.26,24.77-24.26c4.18,0,8.16,1.12,11.93,3.26v42.21Z"/>
  <path class="cls-1" d="M305.54,534.14v42.92c7.44-5.81,11.01-13.15,11.01-21.41s-3.67-15.7-11.01-21.51Z"/>
  <path class="cls-1" d="M285.24,481.11c18.66-.41,30.89-12.34,30.89-28.04,0-13.76-9.07-23.89-22.02-27.76-4.59-1.43-8.36-1.33-11.21-1.33v68h2.34v-10.87ZM285.24,426.43c16.31.2,28.55,11.35,28.55,26.64s-12.13,25.69-28.55,25.69v-52.33Z"/>
  <polygon class="cls-1" points="270.56 491.98 281.47 491.98 281.47 423.98 265.77 423.98 265.77 426.43 270.56 426.43 270.56 491.98"/>
  <path class="cls-1" d="M186.64,32.41c-8.69,0-17.17.88-25.37,2.53l-.24-.32-.74.52c-57.74,12.17-101.23,63.5-101.23,124.81v235.53h255.13v-235.53c0-70.33-57.22-127.54-127.56-127.54ZM275.81,78.52l-22.81,15.25c-2.02-2.31-4.26-4.41-6.68-6.26l13.48-23.64c5.77,4.41,11.13,9.31,16.01,14.65ZM65.8,159.95c0-1.72.03-3.43.12-5.15l106.29-21.03c.27,1.31.59,2.61.98,3.87l-107.39,33.7v-11.4ZM217.93,84.58c22,0,39.91,17.91,39.91,39.91s-17.91,39.91-39.91,39.91-39.91-17.9-39.91-39.91,17.9-39.91,39.91-39.91ZM237.16,166.97l44.63,93.1c-4.98,1.36-9.76,3.01-14.44,4.83l-33.9-96.41c1.26-.44,2.51-.94,3.72-1.52ZM307.46,277.88c-15.35,2.91-28.72,9.66-41.67,16.18-16.28,8.22-33.11,16.72-54.78,18.38h-30.14l-.7-6.08,1.19.41,2.18-6.37-4.23-1.45-.2-1.69c32.62-.57,53.63-9.92,73.98-18.96,16.95-7.54,32.98-14.68,54.36-15.39v14.97ZM307.46,301.41c-8.27,2.79-16.26,6.41-25.52,10.91l.05.12h-40.34c9.66-3.54,18.5-8,27.17-12.37,12.71-6.41,24.78-12.49,38.64-15.32v16.67ZM307.46,312.44h-9.75c3.32-1.45,6.53-2.74,9.75-3.89v3.89ZM223.98,344.43v-25.25h24.89v25.25h-24.89ZM175.24,263.72l4.29-3.14-3.1,13.49-1.2-10.35ZM162.68,213.71l3.84,33.22-42.82-17.68,1.55-14.71,37.43-.83ZM167.4,254.58l4.85,41.95-53.69-18.38,4.41-41.93,44.44,18.35ZM112.5,271.4l-5.37,3.15s0,0,0,0c-2.46-.81-4.9-1.6-7.32-2.34,0,0,0,0,0,0l14.38-16.8-1.68,16ZM117.84,285.03l55.27,18.92.98,8.5h-59.13l2.88-27.41ZM122.36,319.17v25.25h-24.9v-25.25h24.9ZM129.1,319.17h24.89v25.25h-24.89v-25.25ZM160.72,319.17h24.9v25.25h-24.9v-25.25ZM192.35,319.17h24.9v25.25h-24.9v-25.25ZM226.92,170.27l34.16,97.19c-3.57,1.5-7.12,3.08-10.71,4.68-14.11,6.28-28.57,12.69-47.12,16.06l14.61-117.05h.07c3.08,0,6.08-.3,8.99-.88ZM196.33,289.26c-5.24.69-10.79,1.13-16.75,1.25l27.64-120.6c1.28.3,2.59.56,3.91.74l-14.8,118.62ZM181.27,253.01h0s-7.62-3.15-7.62-3.15l-4.38-37.89s.04-.04.06-.06c1.14-1.3,1.67-3.1,1.47-4.96l-1.71-15.72,23.58-27.55c2.54,1.65,5.25,3.05,8.11,4.17l-19.51,85.15ZM187.28,159.62l-21.88,25.58c-1.27-1.59-2.88-3.43-4.78-5.22l23.83-23.06c.89.96,1.85,1.85,2.83,2.69ZM162.45,192.55l1.56,14.39-40.19.89,1.77-15.46c2.95-4.25,10.9-13.35,18.79-13.35h.02c7.66.02,15.26,9.25,18.05,13.53ZM117.52,223.61l-.06-.15-2.94,1.12h0s3.2-3.1,3.2-3.1l.02-.02-.23,2.14ZM108.62,230.31l7.86,3.24-1.06,10.04-22.73,26.56s0,0-.01,0c-7.22-1.94-14.36-3.28-21.5-3.6l37.44-36.24ZM65.8,273.25c14.6-.51,29.66,4.38,45.47,9.85,0,0,0,0,0,0l-1.81,17.26s0,0,0,0c-13.74-4.83-28.84-9.65-43.65-8.8v-18.3ZM65.8,298.27c13.11-.86,26.36,3.13,42.93,8.99,0,0,0,0,0,0l-.54,5.18h-17.46v6.85c-9.6-2.59-17.54-3.54-24.93-2.95v-18.08ZM65.8,323.1c7.19-.64,15.05.37,24.93,3.18v17.84c-8.5-2.32-16.68-3.52-24.93-2.58v-18.45ZM259.01,351.16c-20.61,9.11-44.43,16.41-75.45,16.41h-.82c-27.59-.02-49.44-8.23-68.74-15.49-.82-.3-1.63-.62-2.44-.93h147.45ZM255.61,344.43v-25.25h24.9v25.25h-24.9ZM287.24,319.17h20.22v25.25h-20.22v-25.25ZM307.46,256.2c-6.8.2-13.06.99-18.97,2.26l-45.4-94.69c2.58-1.65,4.98-3.55,7.17-5.67l57.2,44.53v53.58ZM65.8,178.42l109.76-34.46c1.25,2.76,2.78,5.35,4.55,7.78l-24.84,24.05c-3.23-2.04-6.9-3.48-10.85-3.49h-.04c-13.68,0-24.42,16.36-24.87,17.06l-.43.66-2.05,17.88c-.17,1.45.15,2.91.83,4.09h0s-52.07,50.39-52.07,50.39v-83.95ZM65.8,348.33c8.03-1.04,16.25.29,24.93,2.81v.02h.08c6.62,1.9,13.52,4.49,20.81,7.24,19.83,7.44,42.31,15.89,71.09,15.91h.86c39.04,0,66.93-11.11,91.28-23.15h32.61v3.25l-3.3,1.75c-24.81,13.13-50.49,26.72-86.36,32.59h-59.34c-16.73-3.05-31.18-8.16-43.92-12.69-17.73-6.28-33.21-11.77-48.74-9.55v-18.18ZM254.78,153.05c.84-1.04,1.62-2.15,2.32-3.28l50.35,31.04v13.27l-52.68-41.03ZM307.46,159.95v12.96l-47.1-29.06c1.28-2.76,2.29-5.67,3-8.7l42.29,3.84c1.2,6.8,1.82,13.8,1.82,20.96ZM240.67,83.79c-1.16-.66-2.36-1.26-3.59-1.8l11.23-25.87c2.04,1.21,4.04,2.47,5.99,3.8l-13.64,23.87ZM242.41,52.82l-11.65,26.83c-2.88-.84-5.89-1.4-8.99-1.63l-1.8-34.19c7.84,2.26,15.35,5.27,22.44,8.99ZM213.15,42.08l1.89,35.87c-1.36.07-2.69.22-4.01.42l-6.16-37.84c2.79.42,5.56.94,8.28,1.55ZM186.64,39.15c3.8,0,7.56.17,11.28.52l6.53,40.18c-2.93.88-5.74,2.04-8.38,3.47l-30.45-42.34c6.83-1.21,13.85-1.83,21.03-1.83ZM158.4,42.48l31.95,44.43c-1.09.79-2.14,1.63-3.13,2.51l-39.44-43.85c3.47-1.2,7.02-2.22,10.62-3.08ZM141.01,48.09l41.48,46.13c-1.97,2.27-3.7,4.75-5.19,7.37l-73.87-29.16c10.82-10.3,23.53-18.6,37.57-24.34ZM98.29,77.63l76.13,30.05c-.47,1.23-.91,2.49-1.26,3.79l-83.9-22.95c2.79-3.8,5.81-7.44,9.04-10.89ZM85.17,94.4l86.56,23.67c-.3,2.1-.45,4.24-.45,6.43,0,.86.02,1.73.08,2.58l-104.96,20.76c1.95-19.55,8.59-37.74,18.77-53.43ZM65.8,388.75v-15.42c14.14-2.39,28.53,2.71,46.5,9.07,5.84,2.09,12.04,4.26,18.64,6.35h-65.13ZM307.31,362.1l.15-.08v20.34c-5.84,3.16-10.88,5.17-16.08,6.4h-44.07c22.96-7.04,41.7-16.97,60-26.65ZM264.39,128.51c.13-1.31.19-2.66.19-4.01v-.03l37.34-.71c.86,2.74,1.63,5.52,2.29,8.35l-39.81-3.6ZM264.09,117.75c-.45-3.08-1.2-6.08-2.22-8.94l26.57-13.87c4.43,6.94,8.18,14.34,11.14,22.14l-35.49.67ZM259.13,102.65c-.62-1.2-1.31-2.36-2.05-3.48l23.16-15.5c1.52,1.85,2.98,3.74,4.36,5.69l-25.47,13.3Z"/>
</svg>