<?xml version="1.0" encoding="UTF-8"?>
<svg id="Layer_1" data-name="Layer 1" xmlns="http://www.w3.org/2000/svg" viewBox="0 0 620.12 375.61">
  <defs>
    <style>
      .cls-1 {
        fill: #fff;
      }
    </style>
  </defs>
  <polygon class="cls-1" points="253.6 170.48 266.44 170.48 266.44 111.56 268.12 111.56 268.12 170.48 296.08 170.48 296.08 167.6 270.88 167.6 270.88 111.56 291.16 111.56 291.16 108.68 270.88 108.68 270.88 93.32 296.8 93.32 296.8 90.44 268.12 90.44 268.12 108.68 266.44 108.68 266.44 90.44 253.6 90.44 253.6 108.68 247.96 108.68 247.96 111.56 253.6 111.56 253.6 170.48"/>
  <path class="cls-1" d="M330.21,160.52v-60.12c-8.88,8.16-13.2,18.72-13.2,30.12s4.32,21.96,13.2,30Z"/>
  <path class="cls-1" d="M385.17,161.96l-1.8-2.4c-7.44,5.76-15,9.24-24.36,9.24-10.08,0-18.48-3-24.36-8.52v-59.52c5.88-5.52,14.4-8.64,24.36-8.64,9.12,0,16.68,3.36,24.36,9.24l1.8-2.4c-7.68-6-15.96-9.72-26.16-9.72-11.64,0-19.2,3.36-27.12,9.84v62.76c7.92,6.6,15.6,9.84,27.12,9.84,10.32,0,18.48-3.6,26.16-9.72Z"/>
  <polygon class="cls-1" points="462.87 90.44 459.75 90.44 443.55 140.36 426.39 90.44 423.39 90.44 443.55 149.36 462.87 90.44"/>
  <polygon class="cls-1" points="442.59 152.24 421.59 90.44 407.91 90.44 435.87 172.52 442.59 152.24"/>
  <path class="cls-1" d="M312.17,245.8c0-5.4-1.44-9-2.76-12l-39.24,61.68h15.36l21.96-34.56c2.52-4.08,4.68-8.16,4.68-15.12Z"/>
  <path class="cls-1" d="M311.33,263.2c3.48-5.52,5.28-10.8,5.28-17.28,0-16.92-13.92-31.8-32.04-31.8s-31.68,14.52-31.68,31.8c0,12,5.4,20.52,15.72,27.24l1.44-2.28c-9.48-6.36-14.4-14.28-14.4-24.84,0-15.24,12.24-29.04,28.92-29.04s29.28,12.96,29.28,29.04c0,6-1.68,10.68-4.8,15.6l-21.6,33.84h29.28v-2.88h-24.12l18.72-29.4Z"/>
  <path class="cls-1" d="M393.75,225.52v59.88c8.64-7.92,13.2-16.92,13.2-30.36,0-11.28-4.32-21.24-13.2-29.52Z"/>
  <path class="cls-1" d="M323.91,255.4c0,23.28,19.08,41.28,41.04,41.28,11.16,0,19.2-3.6,27.12-9.6v-63.24c-8.16-5.88-16.44-9.6-26.88-9.6-23.16,0-41.28,18.72-41.28,41.16ZM389.31,285.52c-6.96,5.52-15,8.28-24.24,8.28-19.92,0-38.4-16.32-38.4-38.52,0-21,17.4-38.16,38.4-38.16,9.36,0,17.04,2.76,24.24,8.4v60Z"/>
  <path class="cls-1" d="M473.67,263.2c3.48-5.52,5.28-10.8,5.28-17.28,0-16.92-13.92-31.8-32.04-31.8s-31.68,14.52-31.68,31.8c0,12,5.4,20.52,15.72,27.24l1.44-2.28c-9.48-6.36-14.4-14.28-14.4-24.84,0-15.24,12.24-29.04,28.92-29.04s29.28,12.96,29.28,29.04c0,6-1.68,10.68-4.8,15.6l-21.6,33.84h29.28v-2.88h-24.12l18.72-29.4Z"/>
  <path class="cls-1" d="M474.51,245.8c0-5.4-1.44-9-2.76-12l-39.24,61.68h15.36l21.96-34.56c2.52-4.08,4.68-8.16,4.68-15.12Z"/>
  <path class="cls-1" d="M502.21,237.16l17.52-21.72h-3.48l-22.32,27.24c-5.28,6.36-9.12,12.72-9.12,22.56,0,17.76,14.76,31.44,31.44,31.44,6.24,0,12.12-1.68,17.28-4.92v-53.04c-5.4-3.36-11.52-5.04-16.8-5.04s-10.08,1.08-14.52,3.48ZM530.76,290.08c-4.2,2.04-8.64,3.72-14.16,3.72-16.68,0-29.04-13.56-29.04-28.68s12.36-28.56,29.16-28.56c4.92,0,9.6,1.32,14.04,3.84v49.68Z"/>
  <path class="cls-1" d="M535.2,239.92v50.52c8.76-6.84,12.96-15.48,12.96-25.2s-4.32-18.48-12.96-25.32Z"/>
  <path class="cls-1" d="M511.31,157.68c21.96-.48,36.36-14.52,36.36-33,0-16.2-10.68-28.12-25.92-32.68-5.4-1.68-9.84-1.56-13.2-1.56v80.04h2.76v-12.8ZM511.31,93.32c19.2.24,33.6,13.36,33.6,31.36s-14.28,30.24-33.6,30.24v-61.6Z"/>
  <polygon class="cls-1" points="494.03 170.48 506.87 170.48 506.87 90.44 488.39 90.44 488.39 93.32 494.03 93.32 494.03 170.48"/>
  <path class="cls-1" d="M147.73,78.93c-5.16,0-10.2.52-15.07,1.5l-.14-.19-.44.31c-34.3,7.23-60.13,37.72-60.13,74.14v139.91h151.55v-139.91c0-41.78-33.99-75.76-75.77-75.76ZM200.7,106.32l-13.55,9.06c-1.2-1.37-2.53-2.62-3.97-3.72l8.01-14.04c3.43,2.62,6.61,5.53,9.51,8.7ZM75.95,154.69c0-1.02.02-2.04.07-3.06l63.14-12.49c.16.78.35,1.55.58,2.3l-63.79,20.02v-6.77ZM166.32,109.92c13.07,0,23.71,10.64,23.71,23.71s-10.64,23.71-23.71,23.71-23.71-10.63-23.71-23.71,10.63-23.71,23.71-23.71ZM177.74,158.86l26.51,55.3c-2.96.81-5.8,1.79-8.58,2.87l-20.14-57.27c.75-.26,1.49-.56,2.21-.9ZM219.5,224.74c-9.12,1.73-17.06,5.74-24.75,9.61-9.67,4.88-19.67,9.93-32.54,10.92h-17.9l-.42-3.61.71.24,1.29-3.78-2.51-.86-.12-1.01c19.38-.34,31.86-5.89,43.95-11.26,10.07-4.48,19.59-8.72,32.29-9.14v8.89ZM219.5,238.72c-4.91,1.66-9.66,3.81-15.16,6.48l.03.07h-23.96c5.74-2.1,10.99-4.75,16.14-7.35,7.55-3.81,14.72-7.42,22.95-9.1v9.9ZM219.5,245.27h-5.79c1.97-.86,3.88-1.63,5.79-2.31v2.31ZM169.92,264.27v-15h14.79v15h-14.79ZM140.97,216.33l2.55-1.87-1.84,8.01-.71-6.15ZM133.51,186.62l2.28,19.73-25.44-10.5.92-8.74,22.24-.49ZM136.31,210.9l2.88,24.92-31.89-10.92,2.62-24.9,26.4,10.9ZM103.7,220.89l-3.19,1.87s0,0,0,0c-1.46-.48-2.91-.95-4.35-1.39,0,0,0,0,0,0l8.54-9.98-1,9.5ZM106.87,228.99l32.83,11.24.58,5.05h-35.13l1.71-16.28ZM109.56,249.27v15h-14.79v-15h14.79ZM113.56,249.27h14.79v15h-14.79v-15ZM132.34,249.27h14.79v15h-14.79v-15ZM151.13,249.27h14.79v15h-14.79v-15ZM171.66,160.82l20.29,57.73c-2.12.89-4.23,1.83-6.36,2.78-8.38,3.73-16.97,7.54-27.99,9.54l8.68-69.53h.04c1.83,0,3.61-.18,5.34-.52ZM153.49,231.5c-3.11.41-6.41.67-9.95.74l16.42-71.64c.76.18,1.54.33,2.32.44l-8.79,70.46ZM144.54,209.97h0s-4.53-1.87-4.53-1.87l-2.6-22.51s.03-.02.04-.03c.68-.77.99-1.84.87-2.95l-1.02-9.34,14.01-16.37c1.51.98,3.12,1.81,4.82,2.48l-11.59,50.58ZM148.11,154.49l-13,15.19c-.75-.95-1.71-2.04-2.84-3.1l14.16-13.7c.53.57,1.1,1.1,1.68,1.6ZM133.37,174.06l.93,8.55-23.88.53,1.05-9.18c1.75-2.52,6.47-7.93,11.16-7.93h.01c4.55.01,9.07,5.5,10.72,8.04ZM106.68,192.51l-.03-.09-1.74.66h0s1.9-1.84,1.9-1.84h0s-.13,1.26-.13,1.26ZM101.39,196.49l4.67,1.93-.63,5.97-13.5,15.78s0,0,0,0c-4.29-1.15-8.53-1.95-12.77-2.14l22.24-21.53ZM75.95,221.99c8.67-.3,17.62,2.6,27.01,5.85,0,0,0,0,0,0l-1.08,10.25s0,0,0,0c-8.16-2.87-17.13-5.73-25.93-5.23v-10.87ZM75.95,236.85c7.79-.51,15.66,1.86,25.5,5.34,0,0,0,0,0,0l-.32,3.08h-10.37v4.07c-5.7-1.54-10.42-2.1-14.81-1.75v-10.74ZM75.95,251.6c4.27-.38,8.94.22,14.81,1.89v10.6c-5.05-1.38-9.91-2.09-14.81-1.53v-10.96ZM190.72,268.27c-12.24,5.41-26.39,9.75-44.82,9.75h-.49c-16.39-.01-29.37-4.89-40.83-9.2-.49-.18-.97-.37-1.45-.55h87.59ZM188.71,264.27v-15h14.79v15h-14.79ZM207.49,249.27h12.01v15h-12.01v-15ZM219.5,211.86c-4.04.12-7.76.59-11.27,1.34l-26.97-56.25c1.53-.98,2.96-2.11,4.26-3.37l33.98,26.45v31.83ZM75.95,165.66l65.2-20.47c.74,1.64,1.65,3.18,2.7,4.62l-14.75,14.28c-1.92-1.21-4.1-2.07-6.45-2.07h-.02c-8.13,0-14.5,9.72-14.77,10.13l-.25.39-1.22,10.62c-.1.86.09,1.73.5,2.43h0s-30.93,29.93-30.93,29.93v-49.87ZM75.95,266.59c4.77-.62,9.65.17,14.81,1.67h0s.05.01.05.01c3.93,1.13,8.03,2.67,12.36,4.3,11.78,4.42,25.13,9.44,42.23,9.45h.51c23.19,0,39.76-6.6,54.22-13.75h19.37v1.93l-1.96,1.04c-14.74,7.8-29.99,15.87-51.3,19.36h-35.25c-9.94-1.81-18.52-4.85-26.09-7.54-10.53-3.73-19.73-6.99-28.95-5.67v-10.8ZM188.21,150.59c.5-.62.96-1.28,1.38-1.95l29.91,18.44v7.88l-31.29-24.37ZM219.5,154.69v7.7l-27.98-17.26c.76-1.64,1.36-3.37,1.78-5.17l25.12,2.28c.71,4.04,1.08,8.2,1.08,12.45ZM179.83,109.45c-.69-.39-1.4-.75-2.13-1.07l6.67-15.37c1.21.72,2.4,1.47,3.56,2.26l-8.1,14.18ZM180.86,91.05l-6.92,15.94c-1.71-.5-3.5-.83-5.34-.97l-1.07-20.31c4.66,1.34,9.12,3.13,13.33,5.34ZM163.48,84.67l1.12,21.31c-.81.04-1.6.13-2.38.25l-3.66-22.48c1.66.25,3.3.56,4.92.92ZM147.73,82.93c2.26,0,4.49.1,6.7.31l3.88,23.87c-1.74.52-3.41,1.21-4.98,2.06l-18.09-25.15c4.06-.72,8.23-1.09,12.49-1.09ZM130.96,84.91l18.98,26.39c-.65.47-1.27.97-1.86,1.49l-23.43-26.05c2.06-.71,4.17-1.32,6.31-1.83ZM120.63,88.24l24.64,27.4c-1.17,1.35-2.2,2.82-3.08,4.38l-43.88-17.32c6.43-6.12,13.98-11.05,22.32-14.46ZM95.25,105.79l45.22,17.85c-.28.73-.54,1.48-.75,2.25l-49.84-13.63c1.66-2.26,3.45-4.42,5.37-6.47ZM87.46,115.75l51.42,14.06c-.18,1.25-.27,2.52-.27,3.82,0,.51.01,1.03.05,1.53l-62.35,12.33c1.16-11.61,5.1-22.42,11.15-31.74ZM75.95,290.6v-9.16c8.4-1.42,16.95,1.61,27.62,5.39,3.47,1.24,7.15,2.53,11.07,3.77h-38.69ZM219.41,274.77l.09-.05v12.08c-3.47,1.88-6.46,3.07-9.55,3.8h-26.18c13.64-4.18,24.77-10.08,35.64-15.83ZM193.92,136.01c.08-.78.11-1.58.11-2.38v-.02l22.18-.42c.51,1.63.97,3.28,1.36,4.96l-23.65-2.14ZM193.74,129.62c-.27-1.83-.71-3.61-1.32-5.31l15.78-8.24c2.63,4.12,4.86,8.52,6.62,13.15l-21.08.4ZM190.79,120.65c-.37-.71-.78-1.4-1.22-2.07l13.76-9.21c.9,1.1,1.77,2.22,2.59,3.38l-15.13,7.9Z"/>
</svg>